# xmcd
#
# Track frame offsets:
#	150
#	18661
#	37975
#	49606
#	67450
#	81894
#	94128
#	109059
#	122044
#	134647
#	152392
#	169811
#	186765
#	202955
#	218305
#	234916
#	248442
#	264631
#
# Disc length: 3713 seconds
#
# Revision: 0
# Processed by: cddbd v1.5.2PL0 Copyright (c) Steve Scherf et al.
# Submitted via: audiograbber 1.83.01
#
DISCID=f00e7f12
DTITLE=Various Artist - STC VOL 4
DYEAR=1900
DGENRE=country
TTITLE0=Faith Hill - Breathe
TTITLE1=Good Brothers - Hot Knife Boogie
TTITLE2=Freddy Fender - Before The Next Teardrop Falls
TTITLE3=Eddie Rabbitt - Crystal Gayle - You And I
TTITLE4=Carlene Carter - Every Little Thing
TTITLE5=Charlie Rich - The Most Beautiful Girl
TTITLE6=Twister Alley - Dance
TTITLE7=Tom T. Hall - I Like Beer
TTITLE8=Conway Twitty - Tight Fittin' Jeans
TTITLE9=Vince Gill - I Still Believe In You
TTITLE10=Kenny Rodgers - Lady
TTITLE11=Trisha Yearwood - She's In Love With A Boy
TTITLE12=Terri Clark - Now That I Found You
TTITLE13=Collin Raye - I Think About You
TTITLE14=Mary Chapin Carpenter - He Thinks He'll Keep Her
TTITLE15=Tracy Lawrence - Time Marches On
TTITLE16=Patricia Conroy - Keep Me Rockin'
TTITLE17=Mark Chesnutt - Brother Jukebox
EXTD=
EXTT0=
EXTT1=
EXTT2=
EXTT3=
EXTT4=
EXTT5=
EXTT6=
EXTT7=
EXTT8=
EXTT9=
EXTT10=
EXTT11=
EXTT12=
EXTT13=
EXTT14=
EXTT15=
EXTT16=
EXTT17=
PLAYORDER=
